<svg width="224" height="49" viewBox="0 0 224 49" fill="none" xmlns="http://www.w3.org/2000/svg">
<path d="M0.309187 12.315C-0.113788 12.0426 -0.100236 11.4197 0.334184 11.166L19.2956 0.0920138C19.5104 -0.0334348 19.7769 -0.0304127 19.9888 0.0998762L38.6789 11.5918C39.104 11.8531 39.1077 12.4696 38.6859 12.7361L20.0081 24.5359C19.7864 24.676 19.5035 24.6748 19.283 24.5328L0.309187 12.315Z" fill="#2E8B57"/>
<path d="M1.72576 35.9263L19.1399 48.5619C19.3524 48.7161 19.64 48.7161 19.8526 48.5619L37.2667 35.9263C37.424 35.8122 37.5171 35.6296 37.5171 35.4352V25.2179C37.5171 24.7417 36.9937 24.4511 36.5896 24.7029L19.817 35.1504C19.6207 35.2727 19.3718 35.2727 19.1754 35.1504L2.40291 24.7029C1.99874 24.4511 1.47534 24.7417 1.47534 25.2179V35.4352C1.47534 35.6296 1.56845 35.8122 1.72576 35.9263Z" fill="#2E8B57"/>
<path d="M49.3125 11.5781H54.7188L61.3438 27.3438L62.875 31.1562L64.0781 27.3438L66.5156 21.5938L62.125 11.5781H67.2188L69.0156 16.3438L70.6875 11.5781H75.7812L71.3906 21.5938L73.875 27.4688L75.375 31.1562L76.5312 27.4062L83.1875 11.5781H88.5938L77.8125 36H72.9062L70.7344 31.1562L68.9688 26.4531L67.2031 31.1562L65 36H60.0938L49.3125 11.5781ZM87.7219 30.1875C87.7219 29.3021 87.9146 28.4948 88.3 27.7656C88.6854 27.0365 89.2635 26.4115 90.0344 25.8906C90.8052 25.3594 91.7635 24.9531 92.9094 24.6719C94.0656 24.3802 95.4094 24.2344 96.9406 24.2344C98.076 24.2344 99.2687 24.3177 100.519 24.4844C101.779 24.651 103.076 24.9062 104.409 25.25C104.357 24.6667 104.18 24.1302 103.878 23.6406C103.576 23.1406 103.154 22.7135 102.612 22.3594C102.081 21.9948 101.435 21.7135 100.675 21.5156C99.925 21.3177 99.0708 21.2188 98.1125 21.2188C97.5917 21.2188 97.0187 21.25 96.3937 21.3125C95.7687 21.375 95.1229 21.4688 94.4562 21.5938C93.7896 21.7188 93.1281 21.875 92.4719 22.0625C91.826 22.25 91.2219 22.474 90.6594 22.7344L89.2531 18.9375C89.951 18.6875 90.6958 18.4583 91.4875 18.25C92.2896 18.0417 93.1073 17.8646 93.9406 17.7188C94.774 17.5625 95.6073 17.4427 96.4406 17.3594C97.274 17.276 98.0812 17.2344 98.8625 17.2344C102.31 17.2344 104.873 18.1146 106.55 19.875C108.227 21.6354 109.066 24.3333 109.066 27.9688V36H104.441V34.2656C103.961 34.5469 103.435 34.8125 102.862 35.0625C102.3 35.3125 101.685 35.5312 101.019 35.7188C100.352 35.9062 99.6333 36.0521 98.8625 36.1562C98.1021 36.2708 97.2948 36.3281 96.4406 36.3281C95.0031 36.3281 93.7375 36.1719 92.6437 35.8594C91.5604 35.5469 90.6542 35.1146 89.925 34.5625C89.1958 34.0104 88.6437 33.3646 88.2687 32.625C87.9042 31.875 87.7219 31.0625 87.7219 30.1875ZM92.5969 30.0312C92.5969 30.3333 92.675 30.625 92.8312 30.9062C92.9875 31.1771 93.2375 31.4219 93.5812 31.6406C93.925 31.849 94.3625 32.0208 94.8937 32.1562C95.4354 32.2812 96.0865 32.3438 96.8469 32.3438C97.6594 32.3438 98.4458 32.2708 99.2062 32.125C99.9667 31.9792 100.675 31.7865 101.331 31.5469C101.987 31.3073 102.581 31.0312 103.112 30.7188C103.644 30.4062 104.086 30.0833 104.441 29.75V28.9375C103.732 28.7396 103.029 28.5729 102.331 28.4375C101.644 28.3021 100.982 28.1979 100.347 28.125C99.7219 28.0417 99.1281 27.9844 98.5656 27.9531C98.0135 27.9219 97.5292 27.9062 97.1125 27.9062C96.2479 27.9062 95.5292 27.9635 94.9562 28.0781C94.3833 28.1927 93.9198 28.349 93.5656 28.5469C93.2115 28.7344 92.9615 28.9583 92.8156 29.2188C92.6698 29.4792 92.5969 29.75 92.5969 30.0312ZM111.991 17.5625H116.616V20.2188C117.636 19.4583 118.715 18.8021 119.85 18.25C120.985 17.6979 122.116 17.276 123.241 16.9844L124.6 21.2188C122.819 21.3958 121.251 21.7969 119.897 22.4219C118.553 23.0365 117.459 23.9062 116.616 25.0312V36H111.991V17.5625ZM123.978 30.1875C123.978 29.3021 124.171 28.4948 124.556 27.7656C124.942 27.0365 125.52 26.4115 126.291 25.8906C127.061 25.3594 128.02 24.9531 129.166 24.6719C130.322 24.3802 131.666 24.2344 133.197 24.2344C134.332 24.2344 135.525 24.3177 136.775 24.4844C138.035 24.651 139.332 24.9062 140.666 25.25C140.614 24.6667 140.436 24.1302 140.134 23.6406C139.832 23.1406 139.41 22.7135 138.869 22.3594C138.338 21.9948 137.692 21.7135 136.931 21.5156C136.181 21.3177 135.327 21.2188 134.369 21.2188C133.848 21.2188 133.275 21.25 132.65 21.3125C132.025 21.375 131.379 21.4688 130.713 21.5938C130.046 21.7188 129.384 21.875 128.728 22.0625C128.082 22.25 127.478 22.474 126.916 22.7344L125.509 18.9375C126.207 18.6875 126.952 18.4583 127.744 18.25C128.546 18.0417 129.364 17.8646 130.197 17.7188C131.03 17.5625 131.864 17.4427 132.697 17.3594C133.53 17.276 134.338 17.2344 135.119 17.2344C138.567 17.2344 141.129 18.1146 142.806 19.875C144.483 21.6354 145.322 24.3333 145.322 27.9688V36H140.697V34.2656C140.218 34.5469 139.692 34.8125 139.119 35.0625C138.556 35.3125 137.942 35.5312 137.275 35.7188C136.608 35.9062 135.89 36.0521 135.119 36.1562C134.358 36.2708 133.551 36.3281 132.697 36.3281C131.259 36.3281 129.994 36.1719 128.9 35.8594C127.817 35.5469 126.91 35.1146 126.181 34.5625C125.452 34.0104 124.9 33.3646 124.525 32.625C124.16 31.875 123.978 31.0625 123.978 30.1875ZM128.853 30.0312C128.853 30.3333 128.931 30.625 129.088 30.9062C129.244 31.1771 129.494 31.4219 129.838 31.6406C130.181 31.849 130.619 32.0208 131.15 32.1562C131.692 32.2812 132.343 32.3438 133.103 32.3438C133.916 32.3438 134.702 32.2708 135.463 32.125C136.223 31.9792 136.931 31.7865 137.588 31.5469C138.244 31.3073 138.838 31.0312 139.369 30.7188C139.9 30.4062 140.343 30.0833 140.697 29.75V28.9375C139.989 28.7396 139.285 28.5729 138.588 28.4375C137.9 28.3021 137.239 28.1979 136.603 28.125C135.978 28.0417 135.384 27.9844 134.822 27.9531C134.27 27.9219 133.785 27.9062 133.369 27.9062C132.504 27.9062 131.785 27.9635 131.213 28.0781C130.64 28.1927 130.176 28.349 129.822 28.5469C129.468 28.7344 129.218 28.9583 129.072 29.2188C128.926 29.4792 128.853 29.75 128.853 30.0312ZM148.372 10.0781H152.997V36H148.372V10.0781ZM154.625 26.7812C154.625 25.4583 154.891 24.2188 155.422 23.0625C155.964 21.9062 156.729 20.8958 157.719 20.0312C158.719 19.1667 159.922 18.4844 161.328 17.9844C162.745 17.4844 164.333 17.2344 166.094 17.2344C167.854 17.2344 169.438 17.4844 170.844 17.9844C172.26 18.4844 173.464 19.1667 174.453 20.0312C175.453 20.8958 176.219 21.9062 176.75 23.0625C177.292 24.2188 177.562 25.4583 177.562 26.7812C177.562 28.1042 177.292 29.3438 176.75 30.5C176.219 31.6562 175.453 32.6667 174.453 33.5312C173.464 34.3958 172.26 35.0781 170.844 35.5781C169.438 36.0781 167.854 36.3281 166.094 36.3281C164.333 36.3281 162.745 36.0781 161.328 35.5781C159.922 35.0781 158.719 34.3958 157.719 33.5312C156.729 32.6667 155.964 31.6562 155.422 30.5C154.891 29.3438 154.625 28.1042 154.625 26.7812ZM159.484 26.7812C159.484 27.5208 159.63 28.224 159.922 28.8906C160.224 29.5469 160.656 30.1302 161.219 30.6406C161.792 31.1406 162.484 31.5417 163.297 31.8438C164.12 32.1354 165.052 32.2812 166.094 32.2812C167.135 32.2812 168.062 32.1354 168.875 31.8438C169.698 31.5417 170.391 31.1406 170.953 30.6406C171.526 30.1302 171.958 29.5469 172.25 28.8906C172.552 28.224 172.703 27.5208 172.703 26.7812C172.703 26.0417 172.552 25.3385 172.25 24.6719C171.958 24.0052 171.526 23.4219 170.953 22.9219C170.391 22.4115 169.698 22.0104 168.875 21.7188C168.062 21.4167 167.135 21.2656 166.094 21.2656C165.052 21.2656 164.12 21.4167 163.297 21.7188C162.484 22.0104 161.792 22.4115 161.219 22.9219C160.656 23.4219 160.224 24.0052 159.922 24.6719C159.63 25.3385 159.484 26.0417 159.484 26.7812ZM179.05 10.0781H183.675V25.3906L192.3 17.5625H199.378L189.738 26.1875L199.988 36H193.05L186.191 29.3594L183.675 31.6094V36H179.05V10.0781ZM198.959 30.1875C198.959 29.3021 199.152 28.4948 199.538 27.7656C199.923 27.0365 200.501 26.4115 201.272 25.8906C202.043 25.3594 203.001 24.9531 204.147 24.6719C205.303 24.3802 206.647 24.2344 208.178 24.2344C209.314 24.2344 210.506 24.3177 211.756 24.4844C213.017 24.651 214.314 24.9062 215.647 25.25C215.595 24.6667 215.418 24.1302 215.116 23.6406C214.814 23.1406 214.392 22.7135 213.85 22.3594C213.319 21.9948 212.673 21.7135 211.913 21.5156C211.163 21.3177 210.308 21.2188 209.35 21.2188C208.829 21.2188 208.256 21.25 207.631 21.3125C207.006 21.375 206.36 21.4688 205.694 21.5938C205.027 21.7188 204.366 21.875 203.709 22.0625C203.064 22.25 202.459 22.474 201.897 22.7344L200.491 18.9375C201.189 18.6875 201.933 18.4583 202.725 18.25C203.527 18.0417 204.345 17.8646 205.178 17.7188C206.011 17.5625 206.845 17.4427 207.678 17.3594C208.511 17.276 209.319 17.2344 210.1 17.2344C213.548 17.2344 216.11 18.1146 217.788 19.875C219.465 21.6354 220.303 24.3333 220.303 27.9688V36H215.678V34.2656C215.199 34.5469 214.673 34.8125 214.1 35.0625C213.538 35.3125 212.923 35.5312 212.256 35.7188C211.59 35.9062 210.871 36.0521 210.1 36.1562C209.34 36.2708 208.532 36.3281 207.678 36.3281C206.241 36.3281 204.975 36.1719 203.881 35.8594C202.798 35.5469 201.892 35.1146 201.163 34.5625C200.433 34.0104 199.881 33.3646 199.506 32.625C199.142 31.875 198.959 31.0625 198.959 30.1875ZM203.834 30.0312C203.834 30.3333 203.913 30.625 204.069 30.9062C204.225 31.1771 204.475 31.4219 204.819 31.6406C205.163 31.849 205.6 32.0208 206.131 32.1562C206.673 32.2812 207.324 32.3438 208.084 32.3438C208.897 32.3438 209.683 32.2708 210.444 32.125C211.204 31.9792 211.913 31.7865 212.569 31.5469C213.225 31.3073 213.819 31.0312 214.35 30.7188C214.881 30.4062 215.324 30.0833 215.678 29.75V28.9375C214.97 28.7396 214.267 28.5729 213.569 28.4375C212.881 28.3021 212.22 28.1979 211.584 28.125C210.959 28.0417 210.366 27.9844 209.803 27.9531C209.251 27.9219 208.767 27.9062 208.35 27.9062C207.485 27.9062 206.767 27.9635 206.194 28.0781C205.621 28.1927 205.157 28.349 204.803 28.5469C204.449 28.7344 204.199 28.9583 204.053 29.2188C203.907 29.4792 203.834 29.75 203.834 30.0312Z" fill="#2E8B57"/>
</svg>
